ply
format ascii 1.0
comment Created by Blender3D 246 - www.blender.org, source file: rt3.blend
element vertex 34
property float x
property float y
property float z
property float nx
property float ny
property float nz
element face 16
property list uchar uint vertex_indices
end_header
1.526115 1.526115 0.000000 0.000000 -0.000000 1.000000 
-1.526115 -1.526115 0.000000 0.000000 -0.000000 1.000000 
1.526115 -1.526115 0.000000 0.000000 -0.000000 1.000000 
-1.526115 1.526116 0.000000 -0.000000 0.000000 1.000000 
1.526115 1.526115 0.000000 0.000000 0.000000 0.000000 
1.526115 -1.526115 0.000000 0.000000 0.000000 0.000000 
1.526115 -1.526115 0.000000 0.000000 0.000000 0.000000 
1.526115 1.526115 0.000000 0.000000 0.000000 0.000000 
-1.526115 1.526116 0.000000 0.000000 0.000000 0.000000 
-1.526115 1.526116 0.000000 0.000000 0.000000 0.000000 
-1.526115 -1.526115 0.000000 0.000000 0.000000 0.000000 
-1.526115 -1.526115 0.000000 0.000000 0.000000 0.000000 
-1.526115 -1.526115 0.000000 -0.867699 0.000000 0.497089 
-1.526115 1.526116 0.000000 -0.867699 0.000000 0.497089 
-1.868441 1.868442 -0.597550 -0.867699 0.000000 0.497089 
-1.868441 -1.868441 -0.597550 -0.867699 0.000000 0.497089 
1.526115 -1.526115 0.000000 0.000000 -0.867699 0.497090 
-1.526115 -1.526115 0.000000 0.000000 -0.867699 0.497090 
-1.868441 -1.868441 -0.597550 0.000000 -0.867699 0.497090 
1.526115 -1.526115 0.000000 0.000000 -0.867699 0.497089 
-1.868441 -1.868441 -0.597550 0.000000 -0.867699 0.497089 
1.868441 -1.868441 -0.597550 0.000000 -0.867699 0.497089 
-1.526115 1.526116 0.000000 0.000000 0.867699 0.497089 
1.526115 1.526115 0.000000 0.000000 0.867699 0.497089 
1.868441 1.868441 -0.597550 0.000000 0.867699 0.497089 
-1.868441 1.868442 -0.597550 0.000000 0.867699 0.497089 
1.526115 1.526115 0.000000 0.867699 -0.000000 0.497089 
1.526115 -1.526115 0.000000 0.867699 -0.000000 0.497089 
1.868441 -1.868441 -0.597550 0.867699 -0.000000 0.497089 
1.868441 1.868441 -0.597550 0.867699 0.000000 0.497089 
1.868441 1.868441 -0.597550 0.000000 0.000000 -1.000000 
-1.868441 -1.868441 -0.597550 0.000000 0.000000 -1.000000 
-1.868441 1.868442 -0.597550 0.000000 0.000000 -1.000000 
1.868441 -1.868441 -0.597550 0.000000 0.000000 -1.000000 
3 0 1 2 
3 0 3 1 
4 4 5 6 7 
4 8 4 7 9 
4 5 10 11 6 
4 10 8 9 11 
3 12 13 14 
3 12 14 15 
3 16 17 18 
3 19 20 21 
3 22 23 24 
3 22 24 25 
3 26 27 28 
3 26 28 29 
3 30 31 32 
3 30 33 31 
