ply
format ascii 1.0
comment Created by Blender3D 246 - www.blender.org, source file: rt3.blend
element vertex 9
property float x
property float y
property float z
property float nx
property float ny
property float nz
element face 3
property list uchar uint vertex_indices
end_header
0.216364 1.395244 0.000000 0.280241 0.910549 0.303917 
0.686369 0.958168 0.876110 0.280241 0.910549 0.303917 
1.275200 1.069365 0.000000 0.280241 0.910549 0.303917 
0.686369 0.958168 0.876110 -0.896260 -0.288467 0.336904 
0.216364 1.395244 0.000000 -0.896260 -0.288467 0.336904 
0.555064 0.342909 0.000000 -0.896260 -0.288467 0.336904 
0.686369 0.958168 0.876110 0.662107 -0.656347 0.361696 
0.555064 0.342909 0.000000 0.662107 -0.656347 0.361696 
1.275200 1.069365 0.000000 0.662107 -0.656347 0.361696 
3 0 1 2 
3 3 4 5 
3 6 7 8 
