ply
format ascii 1.0
comment Created by Blender3D 247 - www.blender.org, source file: rt3.blend
element vertex 33
property float x
property float y
property float z
property float nx
property float ny
property float nz
element face 16
property list uchar uint vertex_indices
end_header
0.617256 -0.000000 0.662460 0.838717 0.347408 0.419359 
0.436466 0.436466 0.662460 0.838717 0.347408 0.419359 
0.000000 0.000000 1.896971 0.838717 0.347408 0.419359 
0.000000 0.000000 1.896971 0.838717 -0.347408 0.419359 
0.436466 -0.436466 0.662460 0.838717 -0.347408 0.419359 
0.617256 -0.000000 0.662460 0.838717 -0.347408 0.419359 
0.000000 0.000000 1.896971 0.347408 -0.838717 0.419359 
-0.000000 -0.617256 0.662460 0.347408 -0.838717 0.419359 
0.436466 -0.436466 0.662460 0.347408 -0.838717 0.419359 
0.000000 0.000000 1.896971 -0.347408 -0.838717 0.419359 
-0.436466 -0.436465 0.662460 -0.347408 -0.838717 0.419359 
-0.000000 -0.617256 0.662460 -0.347408 -0.838717 0.419359 
0.000000 0.000000 1.896971 -0.838717 -0.347408 0.419359 
-0.617256 0.000000 0.662460 -0.838717 -0.347408 0.419359 
-0.436466 -0.436465 0.662460 -0.838717 -0.347408 0.419359 
0.000000 0.000000 1.896971 -0.838717 0.347408 0.419358 
-0.436466 0.436465 0.662460 -0.838717 0.347408 0.419358 
-0.617256 0.000000 0.662460 -0.838717 0.347408 0.419358 
0.000000 0.000000 1.896971 -0.347408 0.838717 0.419359 
-0.000000 0.617256 0.662460 -0.347408 0.838717 0.419359 
-0.436466 0.436465 0.662460 -0.347408 0.838717 0.419359 
0.000000 0.000000 1.896971 0.347408 0.838717 0.419358 
0.436466 0.436466 0.662460 0.347408 0.838717 0.419358 
-0.000000 0.617256 0.662460 0.347408 0.838717 0.419358 
0.000000 0.000000 0.662460 -0.000000 0.000000 -1.000000 
0.436466 0.436466 0.662460 -0.000000 0.000000 -1.000000 
0.617256 -0.000000 0.662460 -0.000000 0.000000 -1.000000 
0.436466 -0.436466 0.662460 0.000000 0.000000 -1.000000 
-0.000000 -0.617256 0.662460 0.000000 0.000000 -1.000000 
-0.436466 -0.436465 0.662460 0.000000 0.000000 -1.000000 
-0.617256 0.000000 0.662460 0.000000 0.000000 -1.000000 
-0.436466 0.436465 0.662460 0.000000 -0.000000 -1.000000 
-0.000000 0.617256 0.662460 0.000000 -0.000000 -1.000000 
3 0 1 2 
3 3 4 5 
3 6 7 8 
3 9 10 11 
3 12 13 14 
3 15 16 17 
3 18 19 20 
3 21 22 23 
3 24 25 26 
3 24 26 27 
3 24 27 28 
3 24 28 29 
3 24 29 30 
3 24 30 31 
3 24 31 32 
3 32 25 24 
