ply
format ascii 1.0
comment Created by Blender3D 246 - www.blender.org, source file: rt3.blend
element vertex 28
property float x
property float y
property float z
property float nx
property float ny
property float nz
element face 10
property list uchar uint vertex_indices
end_header
-0.335900 -0.208247 0.711887 -0.392166 0.919895 0.000001 
-0.335901 -0.208247 0.000000 -0.392166 0.919895 0.000001 
-0.990118 -0.487150 0.000000 -0.392166 0.919895 0.000001 
-0.335900 -0.208247 0.711887 -0.392166 0.919894 0.000001 
-0.990118 -0.487150 0.000000 -0.392166 0.919894 0.000001 
-0.990118 -0.487151 0.711887 -0.392166 0.919894 0.000001 
-0.711214 -1.141368 0.000000 -0.919895 -0.392166 -0.000001 
-0.711215 -1.141368 0.711887 -0.919895 -0.392166 -0.000001 
-0.990118 -0.487151 0.711887 -0.919895 -0.392166 -0.000001 
-0.711214 -1.141368 0.000000 -0.919894 -0.392166 -0.000001 
-0.990118 -0.487151 0.711887 -0.919894 -0.392166 -0.000001 
-0.990118 -0.487150 0.000000 -0.919894 -0.392166 -0.000001 
-0.056997 -0.862464 0.000000 0.392167 -0.919894 -0.000001 
-0.056997 -0.862465 0.711887 0.392167 -0.919894 -0.000001 
-0.711214 -1.141368 0.000000 0.392167 -0.919894 -0.000001 
-0.056997 -0.862465 0.711887 0.392165 -0.919895 0.000001 
-0.711215 -1.141368 0.711887 0.392165 -0.919895 0.000001 
-0.711214 -1.141368 0.000000 0.392165 -0.919895 0.000001 
-0.335901 -0.208247 0.000000 0.919894 0.392167 -0.000001 
-0.335900 -0.208247 0.711887 0.919894 0.392167 -0.000001 
-0.056997 -0.862464 0.000000 0.919894 0.392167 -0.000001 
-0.335900 -0.208247 0.711887 0.919895 0.392165 0.000001 
-0.056997 -0.862465 0.711887 0.919895 0.392165 0.000001 
-0.056997 -0.862464 0.000000 0.919895 0.392165 0.000001 
-0.335900 -0.208247 0.711887 0.000000 -0.000000 1.000000 
-0.990118 -0.487151 0.711887 0.000000 -0.000000 1.000000 
-0.711215 -1.141368 0.711887 0.000000 -0.000000 1.000000 
-0.056997 -0.862465 0.711887 0.000000 -0.000000 1.000000 
3 0 1 2 
3 3 4 5 
3 6 7 8 
3 9 10 11 
3 12 13 14 
3 15 16 17 
3 18 19 20 
3 21 22 23 
3 24 25 26 
3 24 26 27 
